<svg xmlns="http://www.w3.org/2000/svg" width="40" height="40" viewBox="0 0 40 40">
    <g fill="#417FFF" fill-rule="evenodd">
        <circle cx="20" cy="20" r="20" opacity=".2"/>
        <path fill-rule="nonzero" d="M15.432 26.24c3.184 0 4.816-2.112 5.248-3.856l-2.064-.624c-.304 1.056-1.248 2.32-3.184 2.32-1.824 0-3.52-1.328-3.52-3.744 0-2.576 1.792-3.792 3.488-3.792 1.968 0 2.848 1.2 3.12 2.288l2.08-.656c-.448-1.84-2.064-3.76-5.2-3.76-3.04 0-5.776 2.304-5.776 5.92s2.64 5.904 5.808 5.904zm12.16-.24L31.8 14.656h-2.336l-2.96 8.432-2.96-8.432h-2.416L25.32 26h2.272z"/>
    </g>
</svg>
