<svg xmlns="http://www.w3.org/2000/svg" width="40" height="40" viewBox="0 0 40 40">
    <g fill="none" fill-rule="evenodd">
        <circle cx="20" cy="20" r="20" fill="#24292E" fill-rule="nonzero"/>
        <path fill="#FFF" d="M20 8.605c-6.075 0-11 5.05-11 11.28 0 4.981 3.152 9.209 7.523 10.7.55.104.751-.244.751-.543 0-.268-.01-.977-.015-1.918-3.06.681-3.706-1.512-3.706-1.512-.5-1.303-1.22-1.65-1.22-1.65-1-.7.075-.686.075-.686 1.103.08 1.684 1.163 1.684 1.163.982 1.723 2.575 1.226 3.202.937.1-.73.384-1.226.698-1.508-2.442-.285-5.01-1.252-5.01-5.574 0-1.231.428-2.238 1.132-3.027-.113-.285-.49-1.431.108-2.984 0 0 .924-.304 3.025 1.156.878-.25 1.818-.375 2.754-.38.934.005 1.875.13 2.754.38 2.1-1.46 3.021-1.156 3.021-1.156.6 1.553.223 2.699.11 2.984.705.789 1.13 1.796 1.13 3.027 0 4.332-2.571 5.286-5.022 5.565.395.349.747 1.037.747 2.089 0 1.508-.014 2.724-.014 3.094 0 .302.198.653.757.542C27.85 29.09 31 24.865 31 19.884c0-6.23-4.925-11.28-11-11.28"/>
    </g>
</svg>
