<svg xmlns="http://www.w3.org/2000/svg" width="40" height="40" viewBox="0 0 40 40">
    <g fill="none">
        <circle cx="20" cy="20" r="20" fill="#4285F4"/>
        <path fill="#FFF" d="M29 11l-1.765 1.302v3.326c0 .05-.006.1-.019.147.324.173.555.496.6.875l.008.135v1.157c0 .64-.527 1.157-1.177 1.157-.603 0-1.1-.446-1.168-1.022l-.008-.135v-1.157c0-.436.246-.817.609-1.014l-.007-.018-.014-.125V13.17l-2.437 1.799h-.142l.028.024.054.042.054.052c.529.586.61 1.412.61 2.572 0 2.652-2.493 2.985-2.493 4.118 0 1.119 3.307 2.025 3.305 4.812 0 3.985-4.212 4.381-5.44 4.412h-.61c-1.05-.028-4.723-.353-4.723-3.586 0-3.331 4.45-3.584 5.66-3.599h.29c-.063-.804-.559-.735-.629-1.063l-.008-.083v-1.053l-.154.01c-.767.037-4.142-.013-4.142-3.676 0-.32.042-.627.096-.907.018-.087.039-.173.062-.257H9L18.412 11H29zm-5.003 16.274c-.118-1.382-1.749-2.4-3.666-2.261-1.932.138-3.419 1.345-3.327 2.727.092 1.37 1.749 2.375 3.666 2.25 1.932-.126 3.406-1.346 3.327-2.716zm-3.55-13.03c-.376-.235-.776-.3-1.164-.196-.296.088-.543.267-.74.532l-.087.133c-.116.18-.21.4-.269.646l-.015.007-.006.025c-.178.544-.216 1.212-.098 1.912l.051.264c.4 1.63 1.552 2.7 2.587 2.375 1.046-.3 1.552-1.878 1.164-3.52-.165-.692-.47-1.278-.835-1.682-.177-.21-.377-.378-.588-.496z"/>
    </g>
</svg>
