<svg xmlns="http://www.w3.org/2000/svg" width="40" height="40" viewBox="0 0 40 40">
    <g fill="none" fill-rule="evenodd">
        <path fill="#27BAEC" d="M20 0C8.954 0 0 8.954 0 20c0 11.045 8.954 20 20 20s20-8.955 20-20C40 8.954 31.046 0 20 0"/>
        <path fill="#FFF" d="M27.953 15.926c.007.171.012.342.012.515 0 5.257-4.128 11.32-11.675 11.32-2.317 0-4.474-.658-6.29-1.786.321.036.648.054.979.054 1.922 0 3.691-.635 5.096-1.703-1.796-.031-3.311-1.182-3.834-2.762.252.046.508.07.773.07.373 0 .736-.049 1.081-.14-1.878-.364-3.291-1.973-3.291-3.9v-.051c.552.298 1.186.478 1.858.498-1.1-.714-1.826-1.932-1.826-3.311 0-.73.203-1.414.556-2.002 2.024 2.408 5.048 3.992 8.458 4.158-.07-.29-.106-.595-.106-.907 0-2.197 1.837-3.979 4.102-3.979 1.181 0 2.248.484 2.995 1.257.935-.178 1.814-.51 2.607-.965-.307.929-.958 1.708-1.804 2.201.83-.097 1.62-.31 2.356-.626-.55.797-1.246 1.498-2.047 2.06"/>
    </g>
</svg>
